<svg width="108" height="108" viewBox="0 0 108 108" fill="none" xmlns="http://www.w3.org/2000/svg">
<rect width="108" height="108" fill="white"/>
<path d="M54 26.5C38.81 26.5 26.5 38.81 26.5 54C26.5 69.19 38.81 81.5 54 81.5C69.19 81.5 81.5 69.19 81.5 54C81.5 38.81 69.19 26.5 54 26.5ZM54 72C44.34 72 36.5 64.16 36.5 54.5C36.5 44.84 44.34 37 54 37C63.66 37 71.5 44.84 71.5 54.5C71.5 64.16 63.66 72 54 72Z" fill="#2C9C6A"/>
<path d="M54 42C48.48 42 44 46.48 44 52C44 57.52 48.48 62 54 62C59.52 62 64 57.52 64 52C64 46.48 59.52 42 54 42Z" fill="#2C9C6A"/>
</svg>
